<?xml version="1.0" encoding="UTF-8" standalone="no"?><svg xmlns="http://www.w3.org/2000/svg" xmlns:xlink="http://www.w3.org/1999/xlink" width="188.6" height="196.1" viewBox="0 0 49.9 51.9"><defs><path id="reuse-0" fill="#ff0000" d="m79.8 121 9.7 2.6v11l-9.7-2.5z"/><path id="reuse-1" fill="#ff0000" d="m79.8 132 9.7 2.6v11l-9.7-2.6z"/><path id="reuse-2" fill="#ff0000" d="m79.8 143 9.7 2.6v11l-9.7-2.6z"/></defs><g stroke="#000000" stroke-linejoin="round" stroke-width="0.482733" paint-order="fill markers stroke"><use xlink:href="#reuse-0" transform="translate(-79.6 -110)"/><path fill="#ffff00" d="m93.4 113.8 6.8-3.6 9.6 2.5-6.7 3.7z" transform="translate(-79.6 -110)"/><path fill="#00ff00" d="m122.4 121.4 6.8-3.6v11l-6.8 3.6z" transform="translate(-79.6 -110)"/><use xlink:href="#reuse-0" transform="translate(-79.6 -110)"/><path fill="#ff0000" d="m89.5 123.6 9.7 2.6v11l-9.7-2.6z" transform="translate(-79.6 -110)"/><path fill="#ff0000" d="m99.2 126.2 9.7 2.5v11l-9.7-2.6z" transform="translate(-79.6 -110)"/><path fill="#00ff00" d="m115.6 125 6.8-3.6v11l-6.8 3.6z" transform="translate(-79.6 -110)"/><path fill="#00ff00" d="m108.9 128.7 6.7-3.6v11l-6.7 3.6z" transform="translate(-79.6 -110)"/><use xlink:href="#reuse-1" transform="translate(-79.6 -110)"/><path fill="#00ff00" d="m122.4 132.4 6.8-3.6v11l-6.8 3.6z" transform="translate(-79.6 -110)"/><use xlink:href="#reuse-1" transform="translate(-79.6 -110)"/><path fill="#ff0000" d="m89.5 134.6 9.7 2.5v11l-9.7-2.5z" transform="translate(-79.6 -110)"/><path fill="#ff0000" d="m99.2 137.1 9.7 2.6v11l-9.7-2.6z" transform="translate(-79.6 -110)"/><path fill="#00ff00" d="m115.6 136 6.8-3.6v11l-6.8 3.6z" transform="translate(-79.6 -110)"/><path fill="#00ff00" d="m108.9 139.7 6.7-3.7v11l-6.7 3.6z" transform="translate(-79.6 -110)"/><use xlink:href="#reuse-2" transform="translate(-79.6 -110)"/><path fill="#00ff00" d="m122.4 143.4 6.8-3.6v11l-6.8 3.5z" transform="translate(-79.6 -110)"/><use xlink:href="#reuse-2" transform="translate(-79.6 -110)"/><path fill="#ff0000" d="m89.5 145.6 9.7 2.5v11l-9.7-2.6z" transform="translate(-79.6 -110)"/><path fill="#ff0000" d="m99.2 148.1 9.7 2.5v11l-9.7-2.5z" transform="translate(-79.6 -110)"/><path fill="#00ff00" d="m115.6 147 6.8-3.6v11l-6.8 3.6z" transform="translate(-79.6 -110)"/><path fill="#00ff00" d="m108.9 150.6 6.7-3.6v11l-6.7 3.6z" transform="translate(-79.6 -110)"/><path fill="#ffff00" d="m86.6 117.5 6.8-3.7 9.7 2.6-6.8 3.6z" transform="translate(-79.6 -110)"/><path fill="#ffff00" d="m79.8 121 6.8-3.5 9.7 2.5-6.8 3.6z" transform="translate(-79.6 -110)"/><path fill="#ffff00" d="m112.7 119 6.8-3.7 9.7 2.5-6.8 3.6z" transform="translate(-79.6 -110)"/><path fill="#ffff00" d="m106 122.5 6.7-3.6 9.7 2.5-6.8 3.7z" transform="translate(-79.6 -110)"/><path fill="#ffff00" d="m99.2 126.2 6.8-3.7 9.6 2.6-6.7 3.6z" transform="translate(-79.6 -110)"/><path fill="#ffff00" d="m103 116.4 6.8-3.7 9.7 2.6-6.8 3.6z" transform="translate(-79.6 -110)"/><path fill="#ffff00" d="m96.3 120 6.8-3.6 9.6 2.5-6.7 3.6z" transform="translate(-79.6 -110)"/><path fill="#ffff00" d="m89.5 123.6 6.8-3.6 9.7 2.5-6.8 3.7z" transform="translate(-79.6 -110)"/></g></svg>