<?xml version="1.0" encoding="UTF-8" standalone="no"?><svg xmlns="http://www.w3.org/2000/svg" width="225.7" height="239.2" viewBox="0 0 29.9 31.6"><g stroke="#000000" stroke-linejoin="round" stroke-width="0.3" paint-order="fill markers stroke"><path fill="#ff0000" d="m96.5 123.2 6.4 1.3-3.4 2.4-6.4-1.3z" transform="translate(-80 -115.7)"/><path fill="#666666" d="m90 122 6.5 1.2-3.4 2.4-6.5-1.3z" transform="translate(-80 -115.7)"/><path fill="#666666" d="m83.6 120.6 6.5 1.3-3.5 2.4-6.4-1.2z" transform="translate(-80 -115.7)"/><path fill="#ff0000" d="m100 120.8 6.3 1.3-3.4 2.4-6.4-1.3z" transform="translate(-80 -115.7)"/><path fill="#ffff00" d="m93.5 119.5 6.4 1.3-3.4 2.4L90 122z" transform="translate(-80 -115.7)"/><path fill="#666666" d="m87 118.2 6.5 1.3L90 122l-6.5-1.3z" transform="translate(-80 -115.7)"/><path fill="#666666" d="m103.3 118.4 6.5 1.3-3.5 2.4-6.4-1.3z" transform="translate(-80 -115.7)"/><path fill="#666666" d="m96.9 117.1 6.4 1.3-3.4 2.4-6.4-1.3z" transform="translate(-80 -115.7)"/><path fill="#666666" d="m90.5 115.8 6.4 1.3-3.4 2.4-6.5-1.3z" transform="translate(-80 -115.7)"/><path fill="#666666" d="m93 139.1 6.5 1.3v6.8l-6.4-1.3z" transform="translate(-80 -115.7)"/><path fill="#ff0000" d="m86.6 137.9 6.5 1.2v6.8l-6.5-1.3z" transform="translate(-80 -115.7)"/><path fill="#ff0000" d="m80.2 136.6 6.4 1.3v6.7l-6.4-1.3Z" transform="translate(-80 -115.7)"/><path fill="#666666" d="m93 132.4 6.5 1.3v6.7l-6.4-1.3z" transform="translate(-80 -115.7)"/><path fill="#ff0000" d="m86.6 131.1 6.5 1.3v6.7l-6.5-1.2z" transform="translate(-80 -115.7)"/><path fill="#ff0000" d="m80.2 129.8 6.4 1.3v6.8l-6.4-1.3z" transform="translate(-80 -115.7)"/><path fill="#ffffff" d="m93 125.6 6.5 1.3v6.8l-6.4-1.3z" transform="translate(-80 -115.7)"/><path fill="#666666" d="m86.6 124.3 6.5 1.3v6.8l-6.5-1.3z" transform="translate(-80 -115.7)"/><path fill="#666666" d="m80.2 123 6.4 1.3v6.8l-6.4-1.3z" transform="translate(-80 -115.7)"/><path fill="#00ff00" d="m106.3 135.6 3.5-2.4v6.7l-3.5 2.5z" transform="translate(-80 -115.7)"/><path fill="#00ff00" d="m103 138 3.3-2.4v6.8l-3.4 2.4z" transform="translate(-80 -115.7)"/><path fill="#666666" d="m99.5 140.4 3.4-2.4v6.8l-3.4 2.4z" transform="translate(-80 -115.7)"/><path fill="#00ff00" d="m106.3 128.8 3.5-2.4v6.8l-3.5 2.4z" transform="translate(-80 -115.7)"/><path fill="#00ff00" d="m103 131.2 3.3-2.4v6.8L103 138z" transform="translate(-80 -115.7)"/><path fill="#666666" d="m99.5 133.7 3.4-2.5v6.8l-3.4 2.4z" transform="translate(-80 -115.7)"/><path fill="#666666" d="m106.3 122 3.5-2.3v6.7l-3.5 2.4z" transform="translate(-80 -115.7)"/><path fill="#00ff00" d="m103 124.5 3.3-2.4v6.7l-3.4 2.4z" transform="translate(-80 -115.7)"/><path fill="#00ff00" d="m99.5 126.9 3.4-2.4v6.7l-3.4 2.5z" transform="translate(-80 -115.7)"/></g></svg>