<?xml version="1.0" encoding="UTF-8" standalone="no"?>
<svg
   width="239.2"
   height="239.2"
   viewBox="0 0 31.688436 31.6"
   version="1.1"
   id="svg58"
   sodipodi:docname="logo.svg"
   inkscape:version="1.1.1 (3bf5ae0d25, 2021-09-20)"
   xmlns:inkscape="http://www.inkscape.org/namespaces/inkscape"
   xmlns:sodipodi="http://sodipodi.sourceforge.net/DTD/sodipodi-0.dtd"
   xmlns="http://www.w3.org/2000/svg"
   xmlns:svg="http://www.w3.org/2000/svg">
  <defs
     id="defs62" />
  <sodipodi:namedview
     id="namedview60"
     pagecolor="#505050"
     bordercolor="#eeeeee"
     borderopacity="1"
     inkscape:pageshadow="0"
     inkscape:pageopacity="0"
     inkscape:pagecheckerboard="0"
     showgrid="false"
     inkscape:zoom="2.125459"
     inkscape:cx="114.09301"
     inkscape:cy="113.62252"
     inkscape:window-width="1920"
     inkscape:window-height="1017"
     inkscape:window-x="-8"
     inkscape:window-y="-8"
     inkscape:window-maximized="1"
     inkscape:current-layer="svg58" />
  <g
     stroke="#000000"
     stroke-linejoin="round"
     stroke-width="0.3"
     paint-order="fill markers stroke"
     id="g56"
     transform="translate(0.79486044)">
    <path
       fill="#ff0000"
       d="m 96.5,123.2 6.4,1.3 -3.4,2.4 -6.4,-1.3 z"
       transform="translate(-80,-115.7)"
       id="path2" />
    <path
       fill="#666666"
       d="m 90,122 6.5,1.2 -3.4,2.4 -6.5,-1.3 z"
       transform="translate(-80,-115.7)"
       id="path4" />
    <path
       fill="#666666"
       d="m 83.6,120.6 6.5,1.3 -3.5,2.4 -6.4,-1.2 z"
       transform="translate(-80,-115.7)"
       id="path6" />
    <path
       fill="#ff0000"
       d="m 100,120.8 6.3,1.3 -3.4,2.4 -6.4,-1.3 z"
       transform="translate(-80,-115.7)"
       id="path8" />
    <path
       fill="#ffff00"
       d="m 93.5,119.5 6.4,1.3 -3.4,2.4 L 90,122 Z"
       transform="translate(-80,-115.7)"
       id="path10" />
    <path
       fill="#666666"
       d="m 87,118.2 6.5,1.3 -3.5,2.5 -6.5,-1.3 z"
       transform="translate(-80,-115.7)"
       id="path12" />
    <path
       fill="#666666"
       d="m 103.3,118.4 6.5,1.3 -3.5,2.4 -6.4,-1.3 z"
       transform="translate(-80,-115.7)"
       id="path14" />
    <path
       fill="#666666"
       d="m 96.9,117.1 6.4,1.3 -3.4,2.4 -6.4,-1.3 z"
       transform="translate(-80,-115.7)"
       id="path16" />
    <path
       fill="#666666"
       d="m 90.5,115.8 6.4,1.3 -3.4,2.4 -6.5,-1.3 z"
       transform="translate(-80,-115.7)"
       id="path18" />
    <path
       fill="#666666"
       d="m 93,139.1 6.5,1.3 v 6.8 l -6.4,-1.3 z"
       transform="translate(-80,-115.7)"
       id="path20" />
    <path
       fill="#ff0000"
       d="m 86.6,137.9 6.5,1.2 v 6.8 l -6.5,-1.3 z"
       transform="translate(-80,-115.7)"
       id="path22" />
    <path
       fill="#ff0000"
       d="m 80.2,136.6 6.4,1.3 v 6.7 l -6.4,-1.3 z"
       transform="translate(-80,-115.7)"
       id="path24" />
    <path
       fill="#666666"
       d="m 93,132.4 6.5,1.3 v 6.7 l -6.4,-1.3 z"
       transform="translate(-80,-115.7)"
       id="path26" />
    <path
       fill="#ff0000"
       d="m 86.6,131.1 6.5,1.3 v 6.7 l -6.5,-1.2 z"
       transform="translate(-80,-115.7)"
       id="path28" />
    <path
       fill="#ff0000"
       d="m 80.2,129.8 6.4,1.3 v 6.8 l -6.4,-1.3 z"
       transform="translate(-80,-115.7)"
       id="path30" />
    <path
       fill="#ffffff"
       d="m 93,125.6 6.5,1.3 v 6.8 l -6.4,-1.3 z"
       transform="translate(-80,-115.7)"
       id="path32" />
    <path
       fill="#666666"
       d="m 86.6,124.3 6.5,1.3 v 6.8 l -6.5,-1.3 z"
       transform="translate(-80,-115.7)"
       id="path34" />
    <path
       fill="#666666"
       d="m 80.2,123 6.4,1.3 v 6.8 l -6.4,-1.3 z"
       transform="translate(-80,-115.7)"
       id="path36" />
    <path
       fill="#00ff00"
       d="m 106.3,135.6 3.5,-2.4 v 6.7 l -3.5,2.5 z"
       transform="translate(-80,-115.7)"
       id="path38" />
    <path
       fill="#00ff00"
       d="m 103,138 3.3,-2.4 v 6.8 l -3.4,2.4 z"
       transform="translate(-80,-115.7)"
       id="path40" />
    <path
       fill="#666666"
       d="m 99.5,140.4 3.4,-2.4 v 6.8 l -3.4,2.4 z"
       transform="translate(-80,-115.7)"
       id="path42" />
    <path
       fill="#00ff00"
       d="m 106.3,128.8 3.5,-2.4 v 6.8 l -3.5,2.4 z"
       transform="translate(-80,-115.7)"
       id="path44" />
    <path
       fill="#00ff00"
       d="m 103,131.2 3.3,-2.4 v 6.8 L 103,138 Z"
       transform="translate(-80,-115.7)"
       id="path46" />
    <path
       fill="#666666"
       d="m 99.5,133.7 3.4,-2.5 v 6.8 l -3.4,2.4 z"
       transform="translate(-80,-115.7)"
       id="path48" />
    <path
       fill="#666666"
       d="m 106.3,122 3.5,-2.3 v 6.7 l -3.5,2.4 z"
       transform="translate(-80,-115.7)"
       id="path50" />
    <path
       fill="#00ff00"
       d="m 103,124.5 3.3,-2.4 v 6.7 l -3.4,2.4 z"
       transform="translate(-80,-115.7)"
       id="path52" />
    <path
       fill="#00ff00"
       d="m 99.5,126.9 3.4,-2.4 v 6.7 l -3.4,2.5 z"
       transform="translate(-80,-115.7)"
       id="path54" />
  </g>
</svg>
